# xmcd
#
# Track frame offsets: 
#        150
#        9963
#        20984
#        31626
#        39701
#        48319
#        58590
#        67121
#        76091
#        87743
#        97955
#        108372
#        118644
#        128863
#        137849
#        148536
#        157781
#        165673
#        178178
#        186781
#        196415
#        206724
#        215433
#        225457
#        234217
#
# Disc length: 3221 seconds
#
# Revision: 0
# Processed by: cddbd v1.5.2PL0 Copyright (c) Steve Scherf et al.
# Submitted via: ExactAudioCopyFreeDBPlugin 1.0
#
DISCID=530c9319
DTITLE=Fats Domino - I'm Walking - The Best Of
DYEAR=2017
DGENRE=Rock and Roll
TTITLE0=I'm Walkin'
TTITLE1=Ain't It A Shame
TTITLE2=Blueberry Hill
TTITLE3=Honey Chile
TTITLE4=I'm In Love Again
TTITLE5=Blue Monday
TTITLE6=Valley Of Tears
TTITLE7=The Big Beat
TTITLE8=Sick And Tired
TTITLE9=Margie
TTITLE10=I Want To Walk You Home
TTITLE11=Be My Guest
TTITLE12=Country Boy
TTITLE13=Walking To New Orleans
TTITLE14=Jambalaya (On The Bayou)
TTITLE15=My Girl Josephine
TTITLE16=Three Nights A Week
TTITLE17=It Keeps Rainin'
TTITLE18=What A Party
TTITLE19=Dance With Dr. Domino
TTITLE20=Let The Four Winds Blow
TTITLE21=I Hear You Knocking
TTITLE22=You Win Again
TTITLE23=Don't Come Knockin'
TTITLE24=Whole Lotta Loving
EXTD=
EXTT0=
EXTT1=
EXTT2=
EXTT3=
EXTT4=
EXTT5=
EXTT6=
EXTT7=
EXTT8=
EXTT9=
EXTT10=
EXTT11=
EXTT12=
EXTT13=
EXTT14=
EXTT15=
EXTT16=
EXTT17=
EXTT18=
EXTT19=
EXTT20=
EXTT21=
EXTT22=
EXTT23=
EXTT24=
PLAYORDER=
